<?xml version="1.0" encoding="UTF-8" standalone="no"?>
<!DOCTYPE svg PUBLIC "-//W3C//DTD SVG 1.1//EN" "http://www.w3.org/Graphics/SVG/1.1/DTD/svg11.dtd">
<svg width="100%" height="100%" viewBox="0 0 80 82" version="1.1" xmlns="http://www.w3.org/2000/svg" xmlns:xlink="http://www.w3.org/1999/xlink" xml:space="preserve" xmlns:serif="http://www.serif.com/" style="fill-rule:evenodd;clip-rule:evenodd;stroke-linejoin:round;stroke-miterlimit:2;">
    <g transform="matrix(1,0,0,1,-6.84,74.268)">
        <g>
            <g id="Regular-S">
                <path d="M6.836,-33.203C6.836,-7.715 24.072,7.227 47.607,7.227C53.76,7.227 59.912,6.25 63.818,5.029C66.846,4.053 67.822,2.441 67.822,0.83C67.822,-0.781 66.553,-2.002 64.941,-2.002C64.551,-2.002 63.965,-1.953 63.232,-1.758C58.252,-0.537 54.395,0.342 49.072,0.342C28.369,0.342 14.404,-11.572 14.404,-32.91C14.404,-53.32 27.295,-67.383 47.217,-67.383C64.404,-67.383 79.346,-57.08 79.346,-37.353C79.346,-26.367 75.586,-18.652 69.629,-18.652C65.82,-18.652 63.672,-20.654 63.672,-24.17L63.672,-50.049C63.672,-52.393 62.353,-53.857 60.156,-53.857C57.959,-53.857 56.592,-52.393 56.592,-50.049L56.592,-46.582L56.201,-46.582C54.248,-51.025 49.561,-53.857 44.092,-53.857C34.18,-53.857 27.148,-45.361 27.148,-33.252C27.148,-20.996 34.131,-12.354 44.238,-12.354C50,-12.354 54.59,-15.527 56.787,-20.654L57.178,-20.654C57.861,-15.527 62.451,-12.354 68.457,-12.354C79.443,-12.354 86.279,-23.145 86.279,-37.695C86.279,-59.961 69.873,-74.268 47.315,-74.268C23.438,-74.268 6.836,-58.154 6.836,-33.203ZM45.508,-19.287C39.014,-19.287 35.01,-24.609 35.01,-33.301C35.01,-41.846 39.014,-47.022 45.557,-47.022C52.246,-47.022 56.494,-41.699 56.494,-33.35C56.494,-24.805 52.197,-19.287 45.508,-19.287Z" style="fill:rgb(102,16,242);fill-rule:nonzero;"/>
            </g>
        </g>
    </g>
</svg>
